<?xml version="1.0" encoding="utf-8"?><svg xmlns="http://www.w3.org/2000/svg" xmlns:xlink="http://www.w3.org/1999/xlink"><style>:root>svg{display:none}:root>svg:target{display:block}</style><svg fill="none" viewBox="0 0 25 24" id="arrow-right" xmlns="http://www.w3.org/2000/svg"><path d="M5.5 12h14M12.5 5l7 7-7 7" stroke="#121212" stroke-width="1.5" stroke-linecap="round" stroke-linejoin="round"/></svg><svg fill="none" viewBox="0 0 16 16" id="chevron-down" xmlns="http://www.w3.org/2000/svg"><path d="m4 6 4 4 4-4" stroke="#121212" stroke-linecap="round" stroke-linejoin="round"/></svg><svg viewBox="0 0 1440 120" preserveAspectRatio="xMidYMin slice" fill="none" id="cloud-cta-bottom" xmlns="http://www.w3.org/2000/svg"><g clip-path="url(#ca)"><path fill="#121212" d="M0 0h1440v120H0z"/><circle cx="-20" cy="91" r="40" fill="#575757"/><circle cx="51" cy="89" r="50" fill="#575757"/><circle cx="101" cy="86" r="25" fill="#575757"/><circle cx="178" cy="89" r="70" fill="#575757"/><circle cx="544" cy="103" r="70" fill="#575757"/><circle cx="630" cy="121" r="70" fill="#575757"/><circle cx="725" cy="121" r="70" fill="#575757"/><circle cx="264" cy="91" r="40" fill="#575757"/><circle cx="407" cy="83" r="32" fill="#575757"/><circle cx="464" cy="99" r="40" fill="#575757"/><circle cx="333" cy="119" r="60" fill="#575757"/><circle cx="788" cy="91" r="30" fill="#575757"/><circle cx="848" cy="99" r="60" fill="#575757"/><circle cx="918" cy="91" r="40" fill="#575757"/><circle cx="989" cy="89" r="50" fill="#575757"/><circle cx="1039" cy="86" r="25" fill="#575757"/><circle cx="1116" cy="89" r="70" fill="#575757"/><circle cx="1202" cy="91" r="40" fill="#575757"/><circle cx="1345" cy="83" r="32" fill="#575757"/><circle cx="1402" cy="99" r="40" fill="#575757"/><circle cx="1471" cy="103" r="60" fill="#575757"/><circle cx="1271" cy="119" r="60" fill="#575757"/><circle cx="30" cy="121" r="30" fill="#fff"/><circle cx="90" cy="129" r="60" fill="#fff"/><circle cx="160" cy="121" r="40" fill="#fff"/><circle cx="231" cy="119" r="50" fill="#fff"/><circle cx="281" cy="116" r="25" fill="#fff"/><circle cx="358" cy="147" r="70" fill="#fff"/><circle cx="444" cy="121" r="40" fill="#fff"/><circle cx="587" cy="113" r="32" fill="#fff"/><circle cx="644" cy="129" r="40" fill="#fff"/><circle cx="513" cy="149" r="60" fill="#fff"/><circle cx="635" cy="129" r="30" fill="#fff"/><circle cx="695" cy="147" r="60" fill="#fff"/><circle cx="765" cy="129" r="40" fill="#fff"/><circle cx="836" cy="127" r="50" fill="#fff"/><circle cx="886" cy="124" r="25" fill="#fff"/><circle cx="963" cy="141" r="70" fill="#fff"/><circle cx="1049" cy="129" r="40" fill="#fff"/><circle cx="1192" cy="121" r="32" fill="#fff"/><circle cx="1249" cy="137" r="40" fill="#fff"/><circle cx="1118" cy="157" r="60" fill="#fff"/><circle cx="870" cy="143" r="30" fill="#fff"/><circle cx="930" cy="151" r="60" fill="#fff"/><circle cx="1000" cy="143" r="40" fill="#fff"/><circle cx="1071" cy="141" r="50" fill="#fff"/><circle cx="1121" cy="138" r="25" fill="#fff"/><circle cx="1198" cy="141" r="70" fill="#fff"/><circle cx="1284" cy="143" r="40" fill="#fff"/><circle cx="1428" cy="125" r="32" fill="#fff"/><circle cx="1353" cy="151" r="60" fill="#fff"/></g><defs><clipPath id="ca"><path fill="#fff" d="M0 0h1440v120H0z"/></clipPath></defs></svg><svg viewBox="0 0 1440 120" preserveAspectRatio="xMidYMin slice" fill="none" id="cloud-cta-top" xmlns="http://www.w3.org/2000/svg"><g clip-path="url(#da)"><path fill="#121212" d="M0 0h1440v120H0z"/><circle cx="-16" cy="1" r="40" fill="#575757"/><circle cx="55" cy="-1" r="50" fill="#575757"/><circle cx="105" cy="-4" r="25" fill="#575757"/><circle cx="182" cy="-1" r="70" fill="#575757"/><circle cx="548" cy="13" r="70" fill="#575757"/><circle cx="634" cy="31" r="70" fill="#575757"/><circle cx="729" cy="31" r="70" fill="#575757"/><circle cx="268" cy="1" r="40" fill="#575757"/><circle cx="411" cy="-7" r="32" fill="#575757"/><circle cx="468" cy="9" r="40" fill="#575757"/><circle cx="337" cy="29" r="60" fill="#575757"/><g filter="url(#db)"><rect x="90" y="-27" width="142" height="142" rx="71" fill="url(#dc)"/><rect x="82" y="-35" width="158" height="158" rx="79" stroke="#F1E811" stroke-opacity=".11" stroke-width="16"/></g><circle cx="750" cy="21" r="30" fill="#575757"/><circle cx="810" cy="29" r="60" fill="#575757"/><circle cx="880" cy="21" r="40" fill="#575757"/><circle cx="951" cy="19" r="50" fill="#575757"/><circle cx="1001" cy="16" r="25" fill="#575757"/><circle cx="1078" cy="19" r="70" fill="#575757"/><circle cx="1164" cy="21" r="40" fill="#575757"/><circle cx="1307" cy="13" r="32" fill="#575757"/><circle cx="1364" cy="29" r="40" fill="#575757"/><circle cx="1433" cy="33" r="60" fill="#575757"/><circle cx="1233" cy="49" r="60" fill="#575757"/><circle cx="30" cy="-18" r="30" fill="#fff"/><circle cx="90" cy="-10" r="60" fill="#fff"/><circle cx="160" cy="-18" r="40" fill="#fff"/><circle cx="231" cy="-20" r="50" fill="#fff"/><circle cx="281" cy="-23" r="25" fill="#fff"/><circle cx="358" cy="-20" r="70" fill="#fff"/><circle cx="444" cy="-18" r="40" fill="#fff"/><circle cx="587" cy="-26" r="32" fill="#fff"/><circle cx="644" cy="-10" r="40" fill="#fff"/><circle cx="513" cy="10" r="60" fill="#fff"/><circle cx="639" cy="-11" r="30" fill="#fff"/><circle cx="699" cy="7" r="60" fill="#fff"/><circle cx="769" cy="-11" r="40" fill="#fff"/><circle cx="840" cy="-13" r="50" fill="#fff"/><circle cx="890" cy="-16" r="25" fill="#fff"/><circle cx="967" cy="-13" r="70" fill="#fff"/><circle cx="1053" cy="-11" r="40" fill="#fff"/><circle cx="1196" cy="-19" r="32" fill="#fff"/><circle cx="1253" cy="-3" r="40" fill="#fff"/><circle cx="1122" cy="17" r="60" fill="#fff"/><circle cx="870" cy="-28" r="30" fill="#fff"/><circle cx="930" cy="-20" r="60" fill="#fff"/><circle cx="1000" cy="-28" r="40" fill="#fff"/><circle cx="1071" cy="-30" r="50" fill="#fff"/><circle cx="1198" cy="-30" r="70" fill="#fff"/><circle cx="1284" cy="-28" r="40" fill="#fff"/><circle cx="1353" cy="-20" r="60" fill="#fff"/></g><defs><radialGradient id="dc" cx="0" cy="0" r="1" gradientUnits="userSpaceOnUse" gradientTransform="matrix(0 71 -71 0 161 44)"><stop stop-color="#F2E807"/><stop offset="1" stop-color="#FCF76D" stop-opacity=".58"/></radialGradient><clipPath id="da"><path fill="#fff" d="M0 0h1440v120H0z"/></clipPath><filter id="db" x="67" y="-50" width="188" height="188" filterUnits="userSpaceOnUse" color-interpolation-filters="sRGB"><feFlood flood-opacity="0" result="BackgroundImageFix"/><feBlend in="SourceGraphic" in2="BackgroundImageFix" result="shape"/><feGaussianBlur stdDeviation="3.5" result="effect1_foregroundBlur_116_486"/></filter></defs></svg><svg viewBox="0 0 1440 169" preserveAspectRatio="xMidYMin slice" fill="none" id="cloud-hero" xmlns="http://www.w3.org/2000/svg"><g clip-path="url(#ea)"><circle cx="-16" cy="123" r="40" fill="#EEFFA8"/><circle cx="55" cy="121" r="50" fill="#EEFFA8"/><circle cx="105" cy="118" r="25" fill="#EEFFA8"/><circle cx="182" cy="121" r="70" fill="#EEFFA8"/><circle cx="548" cy="135" r="70" fill="#EEFFA8"/><circle cx="634" cy="153" r="70" fill="#EEFFA8"/><circle cx="729" cy="153" r="70" fill="#EEFFA8"/><circle cx="268" cy="123" r="40" fill="#EEFFA8"/><circle cx="411" cy="115" r="32" fill="#EEFFA8"/><circle cx="468" cy="131" r="40" fill="#EEFFA8"/><circle cx="337" cy="151" r="60" fill="#EEFFA8"/><circle cx="750" cy="123" r="30" fill="#EEFFA8"/><circle cx="810" cy="131" r="60" fill="#EEFFA8"/><circle cx="880" cy="123" r="40" fill="#EEFFA8"/><circle cx="951" cy="121" r="50" fill="#EEFFA8"/><circle cx="1001" cy="118" r="25" fill="#EEFFA8"/><circle cx="1078" cy="121" r="70" fill="#EEFFA8"/><circle cx="1164" cy="123" r="40" fill="#EEFFA8"/><circle cx="1307" cy="115" r="32" fill="#EEFFA8"/><circle cx="1364" cy="131" r="40" fill="#EEFFA8"/><circle cx="1433" cy="135" r="60" fill="#EEFFA8"/><circle cx="1233" cy="151" r="60" fill="#EEFFA8"/><circle cx="30" cy="153" r="30" fill="#fff"/><circle cx="90" cy="161" r="60" fill="#fff"/><circle cx="160" cy="153" r="40" fill="#fff"/><circle cx="231" cy="151" r="50" fill="#fff"/><circle cx="281" cy="148" r="25" fill="#fff"/><circle cx="358" cy="151" r="70" fill="#fff"/><circle cx="444" cy="153" r="40" fill="#fff"/><circle cx="587" cy="145" r="32" fill="#fff"/><circle cx="644" cy="161" r="40" fill="#fff"/><circle cx="513" cy="181" r="60" fill="#fff"/><circle cx="639" cy="161" r="30" fill="#fff"/><circle cx="699" cy="179" r="60" fill="#fff"/><circle cx="769" cy="161" r="40" fill="#fff"/><circle cx="840" cy="159" r="50" fill="#fff"/><circle cx="890" cy="156" r="25" fill="#fff"/><circle cx="967" cy="159" r="70" fill="#fff"/><circle cx="1053" cy="161" r="40" fill="#fff"/><circle cx="1196" cy="153" r="32" fill="#fff"/><circle cx="1253" cy="169" r="40" fill="#fff"/><circle cx="1122" cy="189" r="60" fill="#fff"/><circle cx="870" cy="181" r="30" fill="#fff"/><circle cx="930" cy="189" r="60" fill="#fff"/><circle cx="1000" cy="181" r="40" fill="#fff"/><circle cx="1071" cy="179" r="50" fill="#fff"/><circle cx="1121" cy="176" r="25" fill="#fff"/><circle cx="1198" cy="179" r="70" fill="#fff"/><circle cx="1284" cy="181" r="40" fill="#fff"/><circle cx="1428" cy="163" r="32" fill="#fff"/><circle cx="1353" cy="189" r="60" fill="#fff"/></g><defs><clipPath id="ea"><path fill="#fff" d="M0 0h1440v169H0z"/></clipPath></defs></svg><svg viewBox="0 0 1440 120" preserveAspectRatio="xMidYMin slice" fill="none" id="cloud-subscribe-bottom" xmlns="http://www.w3.org/2000/svg"><g clip-path="url(#fa)"><path fill="#CF0" d="M0 0h1440v120H0z"/><circle cx="-20" cy="91" r="40" fill="#EEFFA8"/><circle cx="51" cy="89" r="50" fill="#EEFFA8"/><circle cx="101" cy="86" r="25" fill="#EEFFA8"/><circle cx="178" cy="89" r="70" fill="#EEFFA8"/><circle cx="544" cy="103" r="70" fill="#EEFFA8"/><circle cx="630" cy="121" r="70" fill="#EEFFA8"/><circle cx="725" cy="121" r="70" fill="#EEFFA8"/><circle cx="264" cy="91" r="40" fill="#EEFFA8"/><circle cx="407" cy="83" r="32" fill="#EEFFA8"/><circle cx="464" cy="99" r="40" fill="#EEFFA8"/><circle cx="333" cy="119" r="60" fill="#EEFFA8"/><circle cx="788" cy="91" r="30" fill="#EEFFA8"/><circle cx="848" cy="99" r="60" fill="#EEFFA8"/><circle cx="918" cy="91" r="40" fill="#EEFFA8"/><circle cx="989" cy="89" r="50" fill="#EEFFA8"/><circle cx="1039" cy="86" r="25" fill="#EEFFA8"/><circle cx="1116" cy="89" r="70" fill="#EEFFA8"/><circle cx="1202" cy="91" r="40" fill="#EEFFA8"/><circle cx="1345" cy="83" r="32" fill="#EEFFA8"/><circle cx="1402" cy="99" r="40" fill="#EEFFA8"/><circle cx="1471" cy="103" r="60" fill="#EEFFA8"/><circle cx="1271" cy="119" r="60" fill="#EEFFA8"/><circle cx="30" cy="121" r="30" fill="#fff"/><circle cx="90" cy="129" r="60" fill="#fff"/><circle cx="160" cy="121" r="40" fill="#fff"/><circle cx="231" cy="119" r="50" fill="#fff"/><circle cx="281" cy="116" r="25" fill="#fff"/><circle cx="358" cy="147" r="70" fill="#fff"/><circle cx="444" cy="121" r="40" fill="#fff"/><circle cx="587" cy="113" r="32" fill="#fff"/><circle cx="644" cy="129" r="40" fill="#fff"/><circle cx="513" cy="149" r="60" fill="#fff"/><circle cx="635" cy="129" r="30" fill="#fff"/><circle cx="695" cy="147" r="60" fill="#fff"/><circle cx="765" cy="129" r="40" fill="#fff"/><circle cx="836" cy="127" r="50" fill="#fff"/><circle cx="886" cy="124" r="25" fill="#fff"/><circle cx="963" cy="141" r="70" fill="#fff"/><circle cx="1049" cy="129" r="40" fill="#fff"/><circle cx="1192" cy="121" r="32" fill="#fff"/><circle cx="1249" cy="137" r="40" fill="#fff"/><circle cx="1118" cy="157" r="60" fill="#fff"/><circle cx="870" cy="143" r="30" fill="#fff"/><circle cx="930" cy="151" r="60" fill="#fff"/><circle cx="1000" cy="143" r="40" fill="#fff"/><circle cx="1071" cy="141" r="50" fill="#fff"/><circle cx="1121" cy="138" r="25" fill="#fff"/><circle cx="1198" cy="141" r="70" fill="#fff"/><circle cx="1284" cy="143" r="40" fill="#fff"/><circle cx="1428" cy="125" r="32" fill="#fff"/><circle cx="1353" cy="151" r="60" fill="#fff"/></g><defs><clipPath id="fa"><path fill="#fff" d="M0 0h1440v120H0z"/></clipPath></defs></svg><svg viewBox="0 0 1440 120" preserveAspectRatio="xMidYMin slice" fill="none" id="cloud-subscribe-top" xmlns="http://www.w3.org/2000/svg"><g clip-path="url(#ga)"><path fill="#CF0" d="M0 0h1440v120H0z"/><circle cx="-16" cy="1" r="40" fill="#EEFFA8"/><circle cx="55" cy="-1" r="50" fill="#EEFFA8"/><circle cx="105" cy="-4" r="25" fill="#EEFFA8"/><circle cx="182" cy="-1" r="70" fill="#EEFFA8"/><circle cx="548" cy="13" r="70" fill="#EEFFA8"/><circle cx="634" cy="31" r="70" fill="#EEFFA8"/><circle cx="729" cy="31" r="70" fill="#EEFFA8"/><circle cx="268" cy="1" r="40" fill="#EEFFA8"/><circle cx="411" cy="-7" r="32" fill="#EEFFA8"/><circle cx="468" cy="9" r="40" fill="#EEFFA8"/><circle cx="337" cy="29" r="60" fill="#EEFFA8"/><circle cx="750" cy="21" r="30" fill="#EEFFA8"/><circle cx="810" cy="29" r="60" fill="#EEFFA8"/><circle cx="880" cy="21" r="40" fill="#EEFFA8"/><circle cx="951" cy="19" r="50" fill="#EEFFA8"/><circle cx="1001" cy="16" r="25" fill="#EEFFA8"/><circle cx="1078" cy="19" r="70" fill="#EEFFA8"/><circle cx="1164" cy="21" r="40" fill="#EEFFA8"/><circle cx="1307" cy="13" r="32" fill="#EEFFA8"/><circle cx="1364" cy="29" r="40" fill="#EEFFA8"/><circle cx="1433" cy="33" r="60" fill="#EEFFA8"/><circle cx="1233" cy="49" r="60" fill="#EEFFA8"/><circle cx="30" cy="-18" r="30" fill="#fff"/><circle cx="90" cy="-10" r="60" fill="#fff"/><circle cx="160" cy="-18" r="40" fill="#fff"/><circle cx="231" cy="-20" r="50" fill="#fff"/><circle cx="281" cy="-23" r="25" fill="#fff"/><circle cx="358" cy="-20" r="70" fill="#fff"/><circle cx="444" cy="-18" r="40" fill="#fff"/><circle cx="587" cy="-26" r="32" fill="#fff"/><circle cx="644" cy="-10" r="40" fill="#fff"/><circle cx="513" cy="10" r="60" fill="#fff"/><circle cx="639" cy="-11" r="30" fill="#fff"/><circle cx="699" cy="7" r="60" fill="#fff"/><circle cx="769" cy="-11" r="40" fill="#fff"/><circle cx="840" cy="-13" r="50" fill="#fff"/><circle cx="890" cy="-16" r="25" fill="#fff"/><circle cx="967" cy="-13" r="70" fill="#fff"/><circle cx="1053" cy="-11" r="40" fill="#fff"/><circle cx="1196" cy="-19" r="32" fill="#fff"/><circle cx="1253" cy="-3" r="40" fill="#fff"/><circle cx="1122" cy="17" r="60" fill="#fff"/><circle cx="870" cy="-28" r="30" fill="#fff"/><circle cx="930" cy="-20" r="60" fill="#fff"/><circle cx="1000" cy="-28" r="40" fill="#fff"/><circle cx="1071" cy="-30" r="50" fill="#fff"/><circle cx="1198" cy="-30" r="70" fill="#fff"/><circle cx="1284" cy="-28" r="40" fill="#fff"/><circle cx="1353" cy="-20" r="60" fill="#fff"/></g><defs><clipPath id="ga"><path fill="#fff" d="M0 0h1440v120H0z"/></clipPath></defs></svg><svg fill="none" viewBox="0 0 121 120" id="i-create" xmlns="http://www.w3.org/2000/svg"><path fill="#fff" d="M.333 0h120v120h-120z"/><path d="M76.247 75.811c-2.798 8.682-11.063 13.999-20.12 11.493a4.25 4.25 0 0 1-3.058-5.18 4.25 4.25 0 0 1 5.18-3.058c1.828.727 3.753 1.303 5.705.837 3.196-.576 5.801-3.342 7.241-6.186 1.596-2.962 6.026-1.106 5.052 2.099v-.005ZM47.323 68.717c-2.336.964-6.437 2.967-7.008 5.54-.01.448.141.549.411.887a4.343 4.343 0 0 1-.43 6.126c-2.162 1.952-5.792 1.084-6.862-1.614l-.365-.891c-1.45-3.36-.681-7.255 1.769-9.92 2.944-3.146 7.013-4.59 11.063-5.431 3.36-.563 4.59 4.123 1.417 5.298l.005.005Z" fill="#F1E811"/><path d="M90.551 71.13c-2.862 7.89-17.756 8.769-25.226 8.074-2.432-.224-5.253-.727-8.105-1.504-8.042-2.177-16.34-6.506-16.943-12.865-.434-4.603 3.187-10.025 8.687-14.02 5.334-3.878 12.434-6.415 19.296-5.555 13.971 1.746 25.382 17.34 22.291 25.87Z" fill="#F1E811"/><path d="M63.918 75.098c-2.29 1.294-8.48-5.307-13.82-14.752a77.286 77.286 0 0 1-2.263-4.297c-1.733-3.548-2.976-6.83-3.616-9.432-.746-3.012-.686-5.124.352-5.714 2.294-1.294 8.48 5.308 13.824 14.752 5.34 9.44 7.813 18.145 5.523 19.443Z" fill="#F1E811"/><path d="M72.7 55.203c1.468-11.712-.712-21.629-4.868-22.15-4.156-.52-8.715 8.552-10.182 20.265-1.467 11.712.713 21.628 4.869 22.149 4.156.52 8.715-8.552 10.182-20.264Z" fill="#F1E811"/><path d="M86.516 64.22c9.165-7.438 14.456-16.104 11.816-19.356-2.64-3.253-12.209.14-21.374 7.578C67.793 59.88 62.502 68.546 65.142 71.8c2.64 3.252 12.209-.14 21.374-7.579Z" fill="#F1E811"/><path opacity=".59" d="M59.959 77.17c-5.459 6.619-16.481 5.513-21.524 4.973-3.113-.334-14.656-1.563-18.798-9.29-.74-1.384-1.902-3.259-1.317-5.43.727-2.688 3.74-4.65 15.946-8.417 11.598-3.58 17.45-5.34 20.289-4.16 7.433 3.1 11.269 15.2 5.404 22.319v.004Z" fill="url(#ha)"/><path d="M51.903 61.137c-.187.667.206 1.394.786 1.732.53.311 1.244.293 1.751-.059.508-.352.91-.95.855-1.6-.064-.764-.53-1.413-1.284-1.623-.617-.174-1.344-.018-1.806.444a1.869 1.869 0 0 0-.471 1.8c.174.65.686 1.13 1.312 1.285.837.21 1.655-.301 1.925-1.092.132-.389-.019-.855-.302-1.134-.32-.32-.709-.366-1.134-.302-.045.01-.091.018-.137.032l.325-.045c-.046.004-.092.009-.137 0l.338.045c-.092-.014-.188-.027-.274-.06l.31.133a.726.726 0 0 1-.082-.045l.265.205c-.036-.032-.068-.06-.1-.096l.205.266a1.66 1.66 0 0 1-.073-.12l.133.316a.865.865 0 0 1-.05-.178l.045.352v-.137l-.045.352c.004-.032.013-.06.022-.092l-.132.316a.502.502 0 0 1 .068-.12l-.205.27a.31.31 0 0 1 .068-.063l-.27.205a.796.796 0 0 1 .12-.068l-.32.132a.67.67 0 0 1 .136-.036l-.356.045c.05 0 .091-.004.142 0l-.357-.045c.046.009.092.018.137.032l-.32-.137a.505.505 0 0 1 .119.068l-.27-.21a.308.308 0 0 1 .064.068l-.21-.274s.032.046.046.073l-.137-.32a.595.595 0 0 1 .036.12l-.05-.358a1.64 1.64 0 0 1 0 .21l.046-.356a.984.984 0 0 1-.032.124l.132-.316a.716.716 0 0 1-.087.151l.206-.265a.554.554 0 0 1-.091.087l.26-.201a.84.84 0 0 1-.11.06l.307-.129a.266.266 0 0 1-.082.018l.338-.045c-.028 0-.055.004-.087 0l.334.045a.554.554 0 0 1-.12-.027l.298.123a1.174 1.174 0 0 1-.105-.06l.247.193a.773.773 0 0 1-.087-.087l.192.247c-.092-.123-.165-.274-.284-.375-.338-.27-.708-.425-1.147-.302-.398.11-.713.425-.823.823l.01.005ZM61.618 61.315c-.627.508-.8 1.459-.398 2.149.375.645 1.079 1.02 1.82 1.015.74-.005 1.536-.444 1.91-1.102.398-.7.384-1.504-.018-2.199-.832-1.45-3.063-1.481-3.886-.014-.512.91-.288 2.135.636 2.693.731.444 1.856.361 2.432-.32.347-.411.612-.992.407-1.54l-.014-.033c-.137-.37-.348-.731-.713-.928a1.636 1.636 0 0 0-1.193-.155c-.247.06-.572.224-.732.416-.142.165.38-.224.165-.128l.38-.16a.272.272 0 0 1-.106.023l.42-.055h-.105l.421.055a.365.365 0 0 1-.1-.028l.374.16c.165.11.302.243.412.407l.16.375a.41.41 0 0 1-.032-.123l.055.416c-.005-.041 0-.087 0-.128l-.055.416c.036-.151.009-.092-.092.187-.187.215-.224.27-.118.156a.962.962 0 0 1-.467.27.555.555 0 0 1 .12-.028l-.412.055c.064-.005.118 0 .182 0l-.41-.055c.196.036.113.096-.133-.082.132.1.164.155-.106-.106.17.165-.182-.347-.082-.123l-.105-.256a.498.498 0 0 1 .027.119l-.054-.403a.567.567 0 0 1 0 .124l.054-.402c-.023.169-.105.192.083-.128-.12.2.26-.27.082-.115l.206-.155c-.037.023-.069.046-.11.06-.005-.05.425-.133.119-.083l.393-.055a1.212 1.212 0 0 1-.183 0l.393.055c-.142-.032-.082 0 .178.092-.128-.078-.077-.037.156.127.16.23.206.284.128.16a2.093 2.093 0 0 0-.247-.315 1.161 1.161 0 0 0-.31-.242c.219.183.278.224.182.132.15.206.192.256.119.151-.055-.1-.032-.05.064.156-.142-.384-.389-.686-.796-.796-.406-.11-.781.028-1.11.293l.009-.005ZM51.79 57.242c.653-1.408 2.317-1.605 3.286-.402.416.516 1.138-.215.727-.727-1.362-1.687-3.991-1.358-4.905.608-.275.599.608 1.12.886.52h.005ZM62.949 57.25c1.705-1.416 4.164-.32 4.297 1.875.041.658 1.07.663 1.029 0-.188-3.122-3.662-4.59-6.053-2.601-.508.425.224 1.147.727.727Z" fill="#3E3D4D"/><path d="M58.313 65.52a1.895 1.895 0 1 1-3.79 0 1.893 1.893 0 0 1 1.893-1.897 1.896 1.896 0 0 1 1.897 1.898Z" fill="#3E3D4D" stroke="#3E3D4D" stroke-width=".914" stroke-miterlimit="10" stroke-linecap="round"/><path d="m39.556 83.445 9.527-2.765-12.512-5.115" fill="#767B77"/><path d="m39.556 83.445 9.527-2.765-12.512-5.115" stroke="#767B77" stroke-width="1.829" stroke-linecap="round" stroke-linejoin="round"/><path d="m20.145 64.076 17.815 3.438c.878.17 1.559.92 1.696 1.87l1.797 12.39c.224 1.54-1.029 2.86-2.45 2.587L21.53 80.987c-.855-.165-1.527-.882-1.687-1.806l-2.14-12.453c-.27-1.559.992-2.926 2.442-2.647v-.005Z" fill="#3E3D4D"/><path d="M27.884 75.533a1.312 1.312 0 1 0 0-2.624 1.312 1.312 0 0 0 0 2.624ZM28.396 71.925a.526.526 0 1 0 0-1.051.526.526 0 0 0 0 1.052ZM29.9 72.945a.33.33 0 1 0 0-.658.33.33 0 0 0 0 .658ZM52.699 61.859a.503.503 0 1 0 0-1.006.503.503 0 0 0 0 1.006ZM61.833 62.806a.503.503 0 1 0 0-1.006.503.503 0 0 0 0 1.006ZM58.226 64.954c-.384.347-.96.567-1.6.567-.823 0-1.536-.366-1.884-.892a1.896 1.896 0 0 1 3.484.325Z" fill="#fff"/><defs><linearGradient id="ha" x1="21.736" y1="59.58" x2="58.098" y2="79.412" gradientUnits="userSpaceOnUse"><stop stop-color="#B5FF9F"/><stop offset="1" stop-color="#fff"/></linearGradient></defs></svg><svg fill="none" viewBox="0 0 120 120" id="i-match" xmlns="http://www.w3.org/2000/svg"><path fill="#fff" d="M0 0h120v120H0z"/><path d="M37.752 78.783c3.875-1.038 6.111-5.257 4.995-9.423-1.117-4.166-5.163-6.702-9.037-5.664-3.875 1.038-6.11 5.257-4.995 9.424 1.117 4.166 5.163 6.701 9.037 5.663Z" fill="#F1E811"/><path d="M85.886 58.537c.251 8.809-14.594 15.741-22.488 18.115-9.826 2.956-27.018 4.306-31.306-3.701-4.519-8.44 5.772-26.384 20.684-30.385 14.948-4.006 32.836 6.443 33.105 15.972l.005-.001Z" fill="#F1E811"/><path d="M60.996 75.804c1.93-2.438-3.887-10.256-12.993-17.463-9.105-7.206-18.05-11.072-19.98-8.634-1.93 2.437 3.888 10.256 12.993 17.462 9.106 7.207 18.051 11.072 19.98 8.635Z" fill="#F1E811"/><path d="M51.035 73.108c2.335-2.95-.605-9.167-6.568-13.886-5.962-4.72-12.688-6.153-15.023-3.203-2.335 2.95.606 9.167 6.568 13.886 5.962 4.719 12.688 6.153 15.023 3.203ZM64.41 76.348c4.446-1.192 5.328-12.317 1.97-24.85-3.358-12.532-9.685-21.726-14.132-20.534-4.446 1.191-5.328 12.316-1.97 24.849 3.358 12.532 9.685 21.726 14.131 20.535Z" fill="#F1E811"/><path d="M78.347 58.392c8.55-9.76 12.544-20.244 8.92-23.419-3.623-3.174-13.491 2.164-22.04 11.924-8.55 9.759-12.544 20.244-8.92 23.418 3.623 3.174 13.49-2.164 22.04-11.923Z" fill="#F1E811"/><path d="M54.246 61.83c-.74.17-1.103.987-1.12 1.684-.025.93.66 1.658 1.508 1.914 1.32.398 2.786-.55 3.084-1.876a2.469 2.469 0 0 0-.602-2.244c-.46-.509-1.139-.766-1.808-.806-.67-.04-1.366.233-1.876.689-.65.586-.859 1.488-.712 2.322.18 1.022 1.104 1.72 2.102 1.776.998.057 1.918-.711 2.223-1.644.2-.609-.024-1.362-.48-1.794l-.023-.022c-.566-.534-1.495-.703-2.177-.273a2.005 2.005 0 0 0-.884 1.17l.181-.432a.266.266 0 0 1-.057.092l.284-.373c-.025.029-.05.058-.084.077l.378-.293a.417.417 0 0 1-.106.056l.455-.188-.113.03.488-.065a.438.438 0 0 1-.116-.002l.469.067-.055-.018.433.18-.052-.03.373.285a.361.361 0 0 1-.104-.099l.293.373a.404.404 0 0 1-.067-.125l.186.45-.037-.139.064.483c-.007-.048-.004-.098-.001-.148l-.062.467c.012-.08.034-.141.058-.214l-.177.427a.629.629 0 0 1 .077-.125l-.281.366c.029-.035.06-.065.09-.095l-.369.285c.055-.042.102-.07.165-.104l-.445.185c.084-.034.161-.054.25-.067l-.477.062c.092-.008.174-.008.265.006l-.461-.063c.064.015.127.026.188.048l-.42-.178c.08.033.15.074.225.126l-.36-.277a.464.464 0 0 1 .09.091l-.284-.363c.043.054.072.102.105.164l-.182-.434c.023.065.04.126.052.194l-.06-.467a.58.58 0 0 1-.002.132l.06-.45a.862.862 0 0 1-.025.133c.14-.3.17-.375.094-.223-.13.228.346-.35.047-.094l.354-.277a1.303 1.303 0 0 1-.17.106l.425-.18a.608.608 0 0 1-.19.051l.457-.056a.794.794 0 0 1-.2-.007l.44.058c-.201-.05.229.098.231.108a.469.469 0 0 0-.124-.076 2.512 2.512 0 0 0-.445-.183c-.157-.052-.075-.057.21.103-.246-.137.218.183.092.08-.376-.317-.803-.455-1.284-.343l-.004.007ZM37.27 52.306c.103-2.12 2.241-3.303 4.099-2.274.67.37 1.273-.66.596-1.033-2.655-1.463-5.746.282-5.887 3.302-.036.768 1.157.773 1.194.01l-.001-.005ZM49.938 51.795c1.034-1.94 3.587-1.84 4.526.128.334.69 1.358.086 1.03-.606-1.324-2.77-5.152-2.81-6.59-.118-.361.68.672 1.276 1.033.596Z" fill="#3E3D4D"/><path d="m46.313 75.127 18.36 14.793" stroke="#FFB487" stroke-width="2.371" stroke-miterlimit="10" stroke-linecap="round"/><path d="M43.116 69.26a4.144 4.144 0 1 0-2.145-8.004 4.144 4.144 0 0 0 2.145 8.005Z" fill="#3E3D4D"/><path d="M53.618 68.44a2.085 2.085 0 0 1-1.475 2.554 2.08 2.08 0 0 1-2.548-1.475 2.097 2.097 0 0 1-.024-1.01 2.086 2.086 0 0 1 4.046-.068Z" fill="#3E3D4D" stroke="#3E3D4D" stroke-width=".948" stroke-miterlimit="10" stroke-linecap="round"/><path d="M53.363 67.86c-.31.48-.859.874-1.54 1.056-.872.234-1.734.047-2.253-.412a2.086 2.086 0 0 1 3.793-.643Z" fill="#fff"/><path opacity=".45" d="M39.432 78.8c6.646-1.78 10.594-8.596 8.818-15.221-1.775-6.626-8.601-10.553-15.247-8.773-6.645 1.78-10.593 8.596-8.818 15.221 1.775 6.626 8.602 10.553 15.247 8.773Z" fill="#B5FFDD"/><path d="M39.04 78.976c6.645-1.78 10.59-8.611 8.809-15.257-1.781-6.645-8.612-10.589-15.257-8.808-6.646 1.78-10.59 8.611-8.809 15.257 1.78 6.645 8.611 10.589 15.257 8.808Z" stroke="#FFB487" stroke-width="1.422" stroke-miterlimit="10"/><path d="M78.765 67.464c-.422 8-4.96 16.072-12.655 19.188-2.685 1.131-5.577 1.653-8.44 1.646a4.938 4.938 0 0 1-4.957-4.906 4.937 4.937 0 0 1 4.907-4.956c2.615.31 5.31.22 7.644-1.07 3.948-1.954 6.356-6.455 7.195-10.7.852-3.854 6.447-3.123 6.3.8l.006-.002Z" fill="#F1E811"/></svg><svg fill="none" viewBox="0 0 121 120" id="i-swap" xmlns="http://www.w3.org/2000/svg"><path fill="#fff" d="M.667 0h120v120h-120z"/><path opacity=".47" d="M89.195 59.78c-1.33 14.559-13.642 28.866-29.865 28.729-15.597-.132-27.3-13.555-29.167-27.132C27.773 44 41.31 25.032 59.33 24.89c17.53-.143 31.446 17.59 29.865 34.89Z" fill="url(#ja)"/><path opacity=".47" d="M68.125 62.38c1.502 2.244 9.97 14.867 5.454 21.179-7.849 10.962-53.837 1.396-58.25-19.606-1.348-6.427 1.184-13.98 6.156-17.967 11.324-9.077 35.667.039 46.635 16.395h.005Z" fill="url(#jb)"/><path opacity=".47" d="M66.75 85.086c-2.669-.35-17.71-2.347-19.431-9.902-2.993-13.126 34.61-41.276 53.226-30.71 5.695 3.235 9.658 10.121 9.346 16.482-.718 14.486-23.648 26.707-43.135 24.125l-.005.005Z" fill="url(#jc)"/><path d="M34.144 74.839c-4.881 2.154-10.405 1.886-11.455-4.392-.138-.526-.264-.707-.325-.735-.319-.175-.61-.22-1.181-.22-1.968.061-4.365.73-6.481-.103-6.036-2.364-3.98-10.566-1.297-14.711 2.885-4.205 9.086-.302 6.519 4.107-1.138 1.409-1.858 3.202-2.078 4.852-.06-.126-.319-.422-.495-.499-.066-.044-.16-.05-.17-.066-.028-.01-.088 0-.044.006 1.297.263 2.864-.099 4.436.104 2.083.142 4.469 1.173 5.722 3.13.962 1.371 1.121 3.208 1.32 4.277 0 .044 0-.01-.028.006-.006-.028-.05-.038-.066-.055-.05-.033-.06-.01-.011.027.104.083.406.17.813.187.836.038 1.995-.209 3.106-.576 3.05-.899 4.623 3.383 1.715 4.666v-.005ZM88.809 68.174c1.418.361 2.852.712 4.034.307.082-.05.115-.088.077-.082-.044.01-.132.093-.17.126.054-.789.324-2.65 1.23-3.915.654-.98 1.65-1.747 2.704-2.25 2.072-1.068 5.271-.8 6.953-.849.45-.016.747-.131.549-.104-.296.055-.599.4-.698.64-.093.22-.055.088-.143-.224-.274-1.1-.868-2.48-1.775-3.438-3.204-3.959 2.336-8.75 5.82-5.032 2.743 3.553 5.167 10.545.517 13.775-2.896 1.928-5.914.466-8.75.849-.18.066-.28.11-.29.088-.028-.017-.138.065-.27.63-.038.164-.143.58-.181.738-.308 1.325-1.061 2.7-2.237 3.46-2.726 1.83-6.298.959-8.942-.027-2.968-1.188-1.506-5.535 1.577-4.708l-.005.016Z" fill="#F1E811"/><path d="M90.678 75.74C88.45 85.097 70.84 88.213 61.842 88.487c-11.197.34-29.708-3.088-31.963-12.747-2.38-10.18 13.546-26.186 30.4-26.192 16.892 0 32.807 16.072 30.399 26.192Z" fill="#F1E811"/><path d="M58.648 85.773c4.035-3.001.45-14.652-8.007-26.023-8.457-11.371-18.584-18.156-22.619-15.155-4.035 3.001-.45 14.652 8.007 26.023 8.457 11.371 18.584 18.156 22.62 15.155Z" fill="#F1E811"/><path d="M60.281 85.427c5.005 0 9.063-11.51 9.063-25.707 0-14.197-4.058-25.707-9.063-25.707-5.005 0-9.062 11.51-9.062 25.707 0 14.198 4.057 25.707 9.062 25.707Z" fill="#F1E811"/><path d="M84.583 70.633C93.04 59.262 96.625 47.611 92.59 44.61c-4.035-3.001-14.162 3.784-22.62 15.155-8.457 11.37-12.042 23.022-8.006 26.023 4.035 3.001 14.162-3.784 22.62-15.155Z" fill="#F1E811"/><path d="M55.534 74.33c.335.347 2.03 2.015 4.747 2.094 2.622.078 4.368-1.383 4.747-1.713" stroke="#3E3D4D" stroke-miterlimit="10" stroke-linecap="round"/><path d="M49.488 62.942c.672-2.037 3.142-2.63 4.734-1.147.574.534 1.455-.309.877-.848-2.271-2.117-5.848-1.226-6.807 1.675-.242.736.954 1.051 1.196.32ZM51.81 70.449c.66-2.108 3.086-2.72 4.65-1.186.564.551 1.43-.32.861-.878-2.23-2.19-5.745-1.269-6.687 1.733-.238.761.937 1.087 1.175.331ZM63.644 68.922c1.528-1.602 4.119-1.21 4.922.916.283.748 1.516.424 1.227-.335-1.12-2.959-4.814-3.813-7.054-1.468-.56.586.34 1.48.9.887h.005ZM66.81 61.474c1.653-1.782 4.348-.943 4.786 1.436.148.783 1.33.452 1.188-.332-.608-3.29-4.594-4.41-6.845-1.981-.542.585.329 1.462.87.877Z" fill="#3E3D4D"/><defs><linearGradient id="ja" x1="59.599" y1="24.884" x2="59.599" y2="88.509" gradientUnits="userSpaceOnUse"><stop stop-color="#fff"/><stop offset="1" stop-color="#FFA23F"/></linearGradient><linearGradient id="jb" x1="19.363" y1="48.03" x2="71.352" y2="86.58" gradientUnits="userSpaceOnUse"><stop stop-color="#fff"/><stop offset="1" stop-color="#FFA23F"/></linearGradient><linearGradient id="jc" x1="109.778" y1="58.016" x2="46.514" y2="71.332" gradientUnits="userSpaceOnUse"><stop stop-color="#fff"/><stop offset="1" stop-color="#FFA23F"/></linearGradient></defs></svg><svg fill="none" viewBox="0 0 113 48" id="l-dribbble" xmlns="http://www.w3.org/2000/svg"><g clip-path="url(#ka)"><path fill-rule="evenodd" clip-rule="evenodd" d="M111.794 30.563c-4.658 7.898-12.035 5.606-14.25 3.812-.944.64-2.597 2.042-4.801 1.88-4.696-.345-6.377-7.054-6.377-7.054.034.026-1.399.494-2.173.486-.01 1.967-1.71 6.668-6.301 6.607-5.151-.067-6.198-7.74-6.198-7.74s-.513.71-2.462 1.42c.098-1.512.026 6.09-6.147 6.202-4.881.089-6.199-7.741-6.199-7.741s-.846.88-2.487 1.184c.104-1.536-.066 6.583-6.24 6.557-4.173-.017-5.599-4.823-5.488-5.49.142-.85-1.41 5.61-5.463 5.509-1.673-.05-2.92-1.26-3.702-2.875-1.048 1.199-2.568 2.875-4.274 2.875-3.063 0-4.413-2.561-4.184-9.877.02-.868-.043-1.209-.906-1.339-.518-.086-1.048-.25-1.609-.336-.18.6-1.705 11.357-6.949 11.561-1.76.069-2.721-1.456-3.511-2.587-1.211 1.602-2.81 2.638-5.087 2.638C3.128 36.255.5 33.136.5 29.289s2.628-6.965 6.486-6.965c.682 0 .874.098 1.497.28C7.2 10.937 10.227 9.113 12.875 9.113c2.541 0 6.884 5.899.774 20.862 1.356 4.463 4.28 4.21 5.686-4.977.286-1.867-.479-4.388.71-4.74 2.175-.642 2.406 1.287 3.425 1.608 1.078.34 1.707.306 2.742.523 1.768.345 2.459 1.295 2.243 3.41-.259 2.678-.711 6.574.669 7.05.995.344 2.812-1.72 3.13-2.849.32-1.129.386-1.515.414-2.344.043-1.77.098-3.067.4-4.406.129-.518.276-.861.862-.885.482-.012 1.364-.157 1.752.145.518.389.453.783.394 1.822-.602 14.803 4.03 7.413 5.41 1.496-.491-6.691-.154-16.592 4.04-16.759 2.18-.086 3.144 1.661 3.25 2.965.3 3.683-1.38 9.783-3.59 13.886-1.262 8.37 5.522 10.026 6.607 3.344-1.775-.844-3.694-4.26-2.133-5.924.876-.934 4.522.408 4.582 3.335 1.788-.479 2.027-1.488 2.052-1.321-.492-6.691-.036-16.118 4.158-16.284 2.18-.087 3.144 1.66 3.25 2.964.3 3.683-1.38 9.783-3.59 13.886-1.263 8.37 5.522 10.026 6.606 3.344-1.314-.253-4.088-3.886-2.487-5.924.855-1.09 4.488 1.175 4.894 3.432 1.718-.486 1.952-1.464 1.976-1.3-.491-6.69-.035-16.118 4.158-16.284 2.18-.086 3.144 1.66 3.25 2.965.3 3.682-1.38 9.783-3.59 13.885-1.262 8.372 5.522 10.026 6.607 3.345-1.806-.301-4.373-4.137-2.307-6.1.825-.784 3.979 1.252 4.717 3.574 1.025-.04 1.664-.393 1.8-.43C84.1 18.574 85.319 9.149 89.83 9.07c2.438-.043 4.822 1.318 3.775 8.79-.998 7.13-4.588 10.123-4.58 10.169.21.854 2.051 8.002 6.69 4.23-.24-.543-.48-1.099-.615-1.772-.769-3.92.741-8.347 4.846-9.062 2.351-.41 4.567.735 4.917 3.316.576 4.224-3.238 7.282-4.688 7.946-.65-.37 5.888 3.824 9.768-4.579.225-.48.496-.44.848-.192.248.175 1.661 1.514 1.004 2.647ZM9.792 28.252c-.197-.59-.602-1.891-.746-2.454C8.257 25.11 7.694 25 6.681 25c-2.25 0-3.575 2.08-3.575 4.325 0 2.243 1.443 4.325 3.694 4.325 1.95 0 3.435-1.326 3.888-3.204-.317-.732-.632-1.404-.896-2.194Zm3.028-16.05c-1.582 0-2.118 3.772-2.014 6.99.092 2.846.887 5.35 1.3 6.473.104.14.085.05.178.199 2.746-6.017 1.607-13.663.536-13.663Zm32.931.118c-2.044-.235-2.03 8.28-1.777 10.19 1.062-1.698 2.906-9.733 1.777-10.19Zm14.926 0c-2.044-.235-2.03 8.28-1.777 10.19 1.062-1.698 2.906-9.733 1.777-10.19Zm14.807.118c-2.044-.234-2.03 8.28-1.777 10.19 1.062-1.698 2.906-9.732 1.777-10.19Zm14.57-.617c-3.184.64-2.442 11.258-1.959 13.12 3.752-5.152 3.829-13.313 1.96-13.12Zm11.936 13.27c-.162-.678-.972-1.04-1.531-.95-1.599.218-3.15 2.21-2.55 5.241.134.676.469 1.297.463 1.276 3.579-2.4 3.883-4.292 3.618-5.568Zm-67.433-5.07a2.31 2.31 0 1 1-.001-4.62 2.31 2.31 0 0 1 0 4.62Z" fill="#575757"/></g><defs><clipPath id="ka"><path fill="#fff" transform="translate(.5)" d="M0 0h112v48H0z"/></clipPath></defs></svg><svg fill="none" viewBox="0 0 113 48" id="l-google" xmlns="http://www.w3.org/2000/svg"><path d="M48.238 25.65c0 5.323-4.165 9.246-9.275 9.246-5.111 0-9.275-3.923-9.275-9.246 0-5.36 4.164-9.246 9.275-9.246 5.11 0 9.275 3.885 9.275 9.246Zm-4.06 0c0-3.326-2.414-5.602-5.215-5.602-2.802 0-5.215 2.276-5.215 5.602 0 3.293 2.413 5.603 5.215 5.603 2.8 0 5.214-2.314 5.214-5.603ZM68.247 25.65c0 5.323-4.165 9.246-9.275 9.246s-9.275-3.923-9.275-9.246c0-5.356 4.164-9.246 9.275-9.246 5.11 0 9.275 3.885 9.275 9.246Zm-4.06 0c0-3.326-2.414-5.602-5.215-5.602-2.802 0-5.215 2.276-5.215 5.602 0 3.293 2.413 5.603 5.215 5.603 2.801 0 5.215-2.314 5.215-5.603ZM87.422 16.963v16.599c0 6.828-4.026 9.617-8.787 9.617-4.481 0-7.178-2.997-8.195-5.448l3.535-1.472c.63 1.505 2.172 3.28 4.656 3.28 3.047 0 4.936-1.88 4.936-5.418v-1.33h-.142c-.909 1.121-2.66 2.1-4.87 2.1-4.622 0-8.857-4.026-8.857-9.207 0-5.22 4.235-9.28 8.858-9.28 2.205 0 3.956.98 4.869 2.068h.142v-1.505h3.855v-.004Zm-3.568 8.72c0-3.255-2.172-5.635-4.935-5.635-2.802 0-5.149 2.38-5.149 5.636 0 3.222 2.347 5.569 5.149 5.569 2.763 0 4.935-2.347 4.935-5.57ZM93.779 7.234v27.095h-3.96V7.234h3.96ZM109.211 28.693l3.152 2.101c-1.017 1.505-3.468 4.098-7.704 4.098-5.252 0-9.175-4.06-9.175-9.246 0-5.498 3.956-9.246 8.721-9.246 4.798 0 7.145 3.819 7.912 5.882l.421 1.05-12.36 5.12c.946 1.854 2.418 2.8 4.481 2.8 2.068 0 3.502-1.016 4.552-2.559Zm-9.7-3.326 8.262-3.431c-.454-1.155-1.821-1.96-3.43-1.96-2.064 0-4.936 1.822-4.832 5.39ZM14.697 23.245v-3.923h13.219a13 13 0 0 1 .196 2.368c0 2.943-.805 6.582-3.397 9.175-2.523 2.626-5.745 4.027-10.013 4.027C6.79 34.892.137 28.447.137 20.535.137 12.623 6.79 6.18 14.702 6.18c4.377 0 7.495 1.717 9.837 3.956l-2.768 2.768c-1.68-1.576-3.956-2.802-7.074-2.802-5.777 0-10.296 4.657-10.296 10.434 0 5.778 4.519 10.434 10.296 10.434 3.748 0 5.882-1.505 7.25-2.872 1.108-1.109 1.838-2.693 2.126-4.856l-9.376.004Z" fill="#575757"/></svg><svg fill="none" viewBox="0 0 169 48" id="l-outreach" xmlns="http://www.w3.org/2000/svg"><path d="M166.801 20.336c.988 1.048 1.485 2.47 1.485 4.27v9.47h-3.665V25.68c0-1.06-.299-1.896-.898-2.507-.6-.611-1.409-.92-2.435-.92-1.211.02-2.174.438-2.881 1.248-.708.81-1.065 1.852-1.065 3.118v7.458h-3.639V13.032h3.639v8.764c1.027-1.987 2.83-2.996 5.405-3.035 1.709 0 3.066.521 4.054 1.575Zm-21.193 1.685c-1.211 0-2.199.418-2.951 1.247-.752.836-1.134 1.91-1.134 3.234 0 1.363.382 2.457 1.134 3.292.759.83 1.74 1.248 2.958 1.248 1.791 0 3.136-.598 4.034-1.788l2.269 1.903a6.608 6.608 0 0 1-2.657 2.27c-1.103.527-2.378.79-3.837.79-1.473 0-2.786-.32-3.933-.964a6.753 6.753 0 0 1-2.671-2.706c-.637-1.164-.956-2.502-.956-4.012 0-1.53.325-2.887.969-4.058a6.784 6.784 0 0 1 2.69-2.72c1.147-.642 2.466-.964 3.964-.964 1.364 0 2.582.238 3.652.72a6.68 6.68 0 0 1 2.62 2.058l-2.212 2.128c-1.026-1.119-2.332-1.678-3.939-1.678Zm-10.07-3.118v15.173h-3.64v-2.41a5.494 5.494 0 0 1-2.084 1.915c-.848.444-1.823.669-2.925.669-1.422 0-2.665-.328-3.742-.977-1.071-.65-1.912-1.57-2.505-2.752-.592-1.183-.892-2.54-.892-4.07 0-1.511.3-2.848.899-4.012a6.567 6.567 0 0 1 2.505-2.707c1.07-.643 2.307-.964 3.709-.964 1.103 0 2.084.225 2.938.668a5.43 5.43 0 0 1 2.097 1.916v-2.436l3.64-.013Zm-4.959 11.13c.765-.747 1.205-1.737 1.319-2.965v-1.074c-.114-1.234-.548-2.218-1.313-2.964-.764-.745-1.733-1.118-2.912-1.118-1.25 0-2.269.43-3.053 1.292-.784.862-1.186 1.974-1.205 3.33.019 1.364.421 2.47 1.205 3.331.784.862 1.803 1.292 3.053 1.292 1.172 0 2.141-.372 2.906-1.125Zm-14.494-9.176c1.205 1.383 1.804 3.318 1.804 5.813 0 .488-.013.861-.026 1.105h-11.058c.242 1.08.739 1.923 1.498 2.54.752.617 1.682.92 2.785.92.752 0 1.504-.148 2.199-.444a5.257 5.257 0 0 0 1.836-1.26l1.956 2.07a7.533 7.533 0 0 1-2.734 1.929c-1.071.456-2.263.681-3.569.681-1.53 0-2.881-.321-4.048-.964a6.711 6.711 0 0 1-2.702-2.707c-.637-1.164-.95-2.501-.95-4.012 0-1.51.319-2.855.969-4.025a6.911 6.911 0 0 1 2.703-2.739c1.16-.656 2.473-.977 3.945-.977 2.39 0 4.188.694 5.392 2.07Zm-1.523 4.456c-.038-1.119-.402-2.006-1.09-2.668-.688-.663-1.606-.997-2.747-.997-1.065 0-1.957.328-2.677.977-.72.65-1.16 1.543-1.332 2.681h7.846v.007ZM99.118 19.57c.867-.52 1.88-.79 3.041-.81v3.575c-1.549-.096-2.786.27-3.71 1.093-.924.823-1.39 1.935-1.39 3.33v7.317H93.42V18.903h3.64v2.919c.51-.984 1.191-1.736 2.058-2.25Zm-8.426 13.567c-1.192.74-2.447 1.106-3.754 1.106-1.288 0-2.346-.386-3.161-1.151-.823-.765-1.23-1.897-1.23-3.389v-14.35l3.613-.438v4.604h4.284v2.694H86.16v6.84c0 .702.128 1.197.39 1.486.26.296.65.437 1.172.437.56 0 1.268-.205 2.129-.623l.841 2.784ZM75.803 18.903h3.614v8.506c0 4.964-3.423 6.809-6.896 6.809-3.474 0-6.89-1.845-6.89-6.81v-8.505h3.613v8.635c0 1.903 1.403 3.446 3.283 3.446s3.282-1.543 3.282-3.447l-.006-8.634Zm-17.662-3.6a9.89 9.89 0 0 1 3.767 3.657c.918 1.55 1.37 3.273 1.37 5.163 0 1.89-.458 3.614-1.37 5.176a10.055 10.055 0 0 1-3.767 3.704c-1.6.906-3.365 1.363-5.309 1.363s-3.71-.457-5.303-1.363a10.054 10.054 0 0 1-3.767-3.704c-.911-1.562-1.37-3.285-1.37-5.176 0-1.89.459-3.613 1.37-5.163a9.844 9.844 0 0 1 3.767-3.658c1.593-.887 3.365-1.33 5.303-1.33 1.944-.007 3.716.436 5.31 1.33Zm-8.579 2.963a6.54 6.54 0 0 0-2.434 2.437c-.6 1.035-.9 2.173-.9 3.42 0 1.248.307 2.392.912 3.434a6.82 6.82 0 0 0 2.435 2.469 6.387 6.387 0 0 0 3.32.906 6.265 6.265 0 0 0 3.277-.906 6.668 6.668 0 0 0 2.396-2.47 6.818 6.818 0 0 0 .88-3.433c0-1.247-.293-2.385-.88-3.42a6.534 6.534 0 0 0-2.396-2.437 6.327 6.327 0 0 0-3.276-.894 6.531 6.531 0 0 0-3.334.894ZM14.966 5.458c5.156 0 12.945 1.601 16.565 5.273.918.932 2.122 2.752 2.122 5.426 0 4.745-3.78 12.03-7.948 16.26-2.154 2.187-5.583 5.041-10.198 5.041-4.512 0-7.954-3.099-8.948-4.115C2.734 29.473 0 23.596 0 18.125c0-3.46.975-6.481 3.455-8.995 2.294-2.321 6.252-3.672 11.51-3.672Zm6.38 18.936c1.74-1.762 2.211-3.935 2.211-5.131 0-.868-.223-2.135-1.293-3.222-1.639-1.665-3.461-2.134-5.437-2.134-2.505 0-4.188.803-5.31 1.935-.88.9-1.638 2.263-1.638 4.211 0 1.942 1.027 3.82 2.136 4.951 1.032 1.042 2.651 1.813 4.276 1.813 1.632 0 3.315-.662 5.055-2.424Z" fill="#575757"/></svg><svg fill="none" viewBox="0 0 153 48" id="l-tesla" xmlns="http://www.w3.org/2000/svg"><g clip-path="url(#na)" fill="#5E5E5E"><path d="M131.031 22.936v12.052h3.852v-8.034h14.089v8.034h3.852V22.936h-21.793Zm3.412-3.907h14.859c2.091-.385 3.577-2.256 4.017-4.017h-22.893c.44 1.76 1.981 3.577 4.017 4.017Zm-15.134 15.96c1.926-.826 2.972-2.257 3.412-3.908h-17.335V15.067h-3.907v19.921h17.83ZM72.587 18.973h13.758c2.091-.605 3.797-2.201 4.238-3.907H68.79v11.777h17.83v4.127H72.642c-2.201.605-4.072 2.091-5.008 4.017h22.839V22.936h-17.83l-.056-3.962Zm-33.9.055h14.86c2.09-.385 3.631-2.256 4.017-4.017H34.614c.44 1.76 1.981 3.577 4.072 4.017Zm0 7.87h14.86c2.09-.386 3.631-2.257 4.017-4.018H34.614c.44 1.761 1.981 3.577 4.072 4.018Zm0 8.09h14.86c2.09-.386 3.631-2.257 4.017-4.018H34.614c.44 1.761 1.981 3.632 4.072 4.017ZM0 15.067c.44 1.76 1.981 3.522 4.017 3.962h6.274l.33.11v15.794h3.907V19.14l.33-.11h6.274c2.091-.55 3.577-2.201 4.018-3.962v-.055L0 15.067Z"/></g><defs><clipPath id="na"><path fill="#fff" d="M0 0h153v48H0z"/></clipPath></defs></svg><svg fill="none" viewBox="0 0 165 48" id="l-treehouse" xmlns="http://www.w3.org/2000/svg"><g clip-path="url(#oa)" fill="#575757"><path d="M50.825 30.056c-.475.119-1.069.238-1.663.238-1.187 0-1.662-.713-1.662-1.9V23.05h3.325c.831 0 1.662-.594 1.662-1.544 0-.95-.712-1.544-1.662-1.544H47.5v-1.78c0-1.07-.831-1.782-1.781-1.782s-1.782.831-1.782 1.781v10.331c0 2.97 1.425 5.107 4.75 5.107.95 0 2.257-.119 3.207-.594.831-.356 1.069-.95 1.069-1.544 0-.831-.832-1.662-2.138-1.425ZM62.7 19.487c-.475-.118-1.425-.237-2.256-.237-2.969 0-4.632 1.781-4.632 4.512v8.075c0 .95.832 1.782 1.782 1.782.95 0 1.781-.831 1.781-1.782v-7.362c0-1.188.475-1.663 1.306-1.663.832 0 1.306.238 2.019.238 1.069 0 1.662-.95 1.662-1.663-.118-.95-.593-1.543-1.662-1.9Zm9.856-.237c-3.325 0-5.7 2.137-6.056 5.581 0 .832-.119 2.256 0 3.325.237 3.325 2.612 5.581 6.175 5.581 1.663 0 3.206-.356 4.156-.95.713-.474.831-.95.831-1.424 0-.95-.83-1.9-2.256-1.425-.831.356-1.781.593-2.731.593-1.662 0-2.969-.831-2.969-2.493v-.357h6.769c1.188 0 1.781-.712 1.781-1.781v-.594c.119-3.681-2.256-6.056-5.7-6.056Zm2.257 6.056h-4.988c0-1.781.831-2.969 2.731-2.969 1.663 0 2.613 1.07 2.494 2.613 0 .238 0 .356-.237.356Zm11.993-6.056c-3.325 0-5.7 2.137-6.056 5.581 0 .832-.119 2.256 0 3.325.237 3.325 2.612 5.581 6.175 5.581 1.663 0 3.206-.356 4.156-.95.713-.474.831-.95.831-1.424 0-.95-.83-1.9-2.256-1.425-.831.356-1.781.593-2.731.593-1.662 0-2.969-.831-2.969-2.493v-.357h6.769c1.188 0 1.781-.712 1.781-1.781v-.594c.119-3.681-2.256-6.056-5.7-6.056Zm2.257 6.056h-4.988c0-1.781.831-2.969 2.731-2.969 1.663 0 2.613 1.07 2.494 2.613 0 .238 0 .356-.237.356Zm57.712-.119-1.9-.475c-1.187-.237-1.544-.593-1.544-1.187 0-.594.594-1.069 1.9-1.069.713 0 1.544.238 2.256.594.832.475 1.782.356 2.257-.238.594-.593.594-1.662-.119-2.375-.95-.712-2.612-1.187-4.275-1.187-3.087 0-5.344 1.544-5.344 4.394 0 2.256 1.663 3.444 3.8 4.037 1.069.238.95.238 1.9.475 1.069.238 1.544.713 1.544 1.188 0 .712-.594 1.187-2.019 1.187a6.268 6.268 0 0 1-3.087-.831c-.832-.594-1.781-.356-2.256.356-.475.713-.357 1.663.356 2.138.95.831 2.494 1.543 4.987 1.543 3.088 0 5.463-1.662 5.463-4.512 0-2.138-1.307-3.444-3.919-4.038Zm16.506 2.494c1.188 0 1.781-.712 1.781-1.781v-.594c0-3.681-2.374-6.056-5.818-6.056-3.325 0-5.7 2.137-6.056 5.581 0 .832-.119 2.256 0 3.325.237 3.325 2.612 5.581 6.174 5.581 1.663 0 3.207-.356 4.157-.95.712-.474.831-.95.831-1.424 0-.95-.831-1.9-2.256-1.425-.832.356-1.782.593-2.732.593-1.662 0-2.968-.831-2.968-2.493v-.357h6.887Zm-4.037-5.344c1.662 0 2.612 1.07 2.493 2.613 0 .238-.118.356-.237.356h-4.987c0-1.781.95-2.969 2.731-2.969Zm-43.463-3.087c-3.562 0-6.175 2.256-6.531 5.344-.119 1.069-.119 2.731 0 3.8.238 3.087 2.969 5.343 6.531 5.343 3.563 0 6.175-2.256 6.413-5.343a19.185 19.185 0 0 0 0-3.681c-.238-3.207-2.85-5.463-6.413-5.463Zm2.85 8.55c-.118 1.544-1.187 2.494-2.85 2.494-1.662 0-2.731-1.069-2.85-2.494v-2.613c.119-1.543 1.188-2.493 2.85-2.493 1.663 0 2.732 1.069 2.85 2.494.119.712.119 1.9 0 2.612Zm-16.981-8.55c-1.306 0-2.731.475-3.206 1.069v-3.8c0-1.069-.713-1.781-1.663-1.781-.95 0-1.662.83-1.662 1.78v15.32c0 .95.831 1.78 1.781 1.78s1.662-.83 1.662-1.78V23.88c.594-.593 1.544-1.069 2.732-1.069 1.425 0 2.256.832 2.256 2.494v6.531c0 1.07.712 1.9 1.662 1.9 1.069 0 1.782-.83 1.782-1.9V25.07c-.119-3.8-2.019-5.819-5.344-5.819Zm33.25.119c-.95 0-1.781.831-1.781 1.781v8.431a4.78 4.78 0 0 1-2.494.713c-1.425 0-2.494-.831-2.494-2.494v-6.65c0-1.069-.831-1.9-1.781-1.9-1.069 0-1.662.831-1.662 1.9v6.769c0 3.681 2.137 5.7 5.818 5.7 2.732 0 4.631-.95 5.463-1.544.475-.238.593-.594.593-1.188V21.15c0-.95-.712-1.781-1.662-1.781ZM30.875 12.006c-1.306-.712-3.325.475-4.512 2.613l-2.257 3.8c-.831 1.544-.712 3.444.356 4.987l.12.12a36.85 36.85 0 0 0 2.85 3.324c.237.238.474.594.593 1.069.356 1.306-.356 2.731-1.781 3.087-1.306.357-2.732-.356-3.088-1.78-.118-.357-.118-.713-.118-.95.118-.595-.12-1.426-.95-2.376-.832-.831-2.376.831-2.97 2.494v.119c-.474 1.662-.83 3.206-.712 3.325 0 .118.119.118.119.237.713 1.425.238 3.088-1.188 3.8-1.425.713-3.087.238-3.8-1.187-.712-1.425-.237-3.088 1.188-3.8.119 0 .119-.12.238-.12.118 0 .356-.712.712-1.662a31.43 31.43 0 0 1 .475-1.543c.119-.475.356-1.663.238-2.138-.12-.594-.713-.594-1.307-.237-.356.237-1.069.83-1.306 1.068-.594.475-1.069 1.188-1.306 1.782a3.61 3.61 0 0 1-.594.83c-1.069.832-2.613.713-3.563-.355-.83-1.07-.712-2.613.357-3.563.356-.237.712-.475 1.069-.475.593-.119 2.73-1.425 4.037-2.375.237-.119.594-.475.713-.594.356-.475 0-.83-.357-.83-1.069.118-2.256.237-2.494.593-.118.119-.237.356-.475.475-.95.712-2.375.475-3.087-.475-.712-.95-.475-2.375.475-3.088.356-.356.95-.475 1.306-.475.832 0 2.969.475 4.632.12l.475-.12c1.78-.356 3.918-1.9 4.75-3.443 0 0 .83-1.425 1.78-3.207 1.07-1.78.95-3.8-.118-4.393l-2.019-1.188c-1.069-.594-2.612-.594-3.681 0L1.9 13.313C.831 13.906 0 15.33 0 16.519v15.2c0 1.187.831 2.612 1.9 3.206l13.775 7.838c1.069.593 2.731.593 3.681 0l13.775-7.838c1.069-.594 1.9-2.019 1.9-3.206v-15.2c0-1.188-.831-2.613-1.9-3.206 0 0-.95-.594-2.256-1.307Z"/></g><defs><clipPath id="oa"><path fill="#fff" d="M0 0h165v48H0z"/></clipPath></defs></svg><svg fill="none" viewBox="0 0 31 35" id="logo" xmlns="http://www.w3.org/2000/svg"><path d="m10.92 32.746.002-.003 7.223-11.736 3.36 1.881-6.447 12.172-4.137-2.314Zm-.35-19.634L16.97.94l4.094 2.358-.003.004-7.222 11.736-3.27-1.926Zm12.309 2.562 7.483 11.585-4.138 2.429h-.03l-6.63-12.043 3.315-1.971ZM.756 20.956l13.75.406.09 3.807-13.84.586v-4.799Zm16.723-10.125 13.84-.586.044 4.754h-.027l-13.857-.316v-3.852Zm-8.374 9.45L1.712 8.65l4.081-2.422 6.582 12.126-3.27 1.926Z" fill="#121212" stroke="#121212" stroke-width=".036"/></svg><svg fill="none" viewBox="0 0 270 317" id="tree-left" xmlns="http://www.w3.org/2000/svg"><path d="M188 50c0 27.614-22.386 50-50 50S88 77.614 88 50s22.386-50 50-50 50 22.386 50 50ZM109 167c0 27.614-18.925 39.5-50 50-28.5 9.63-59-2.886-59-30.5S31.386 117 59 117s50 22.386 50 50Z" fill="#fff"/><path d="M239 106c0 27.614-32.386 54-60 54-27.614 0-50-22.386-50-50s22.386-50 50-50 60 18.386 60 46Z" fill="#fff"/><path d="M269.413 186.5c0 27.614-26.799 30.5-54.413 30.5-27.614 0-50-22.386-50-50s21.299-41 48.913-41c27.615 0 55.5 32.886 55.5 60.5ZM147 106c0 27.614-22.386 50-50 50s-50-22.386-50-50 22.386-50 50-50 50 22.386 50 50Z" fill="#fff"/><path d="M197.5 186.5c0 27.209 5.825 58.565-56.663 35.085-1.78-.668-3.878-.598-5.615.174-61.73 27.427-45.147-17.046-45.147-44.259 0-27.614 22.385-66 50-66 27.614 0 57.425 47.386 57.425 75Z" fill="#fff"/><path d="M140.723 159.856c0-10.308-1.985-12.599-2.482-16.035-.496-3.436.371-18.425-.993-30.16-2.815-24.228-4.468 53.448-3.475 62.229C108.454 172.836 102 162.528 102 162.528s6.454 19.47 31.773 18.707c0 6.49-.496 134.765-.496 134.765h7.446V165.2C166.539 159.856 172 143.821 172 143.821s-11.915 16.035-31.277 16.035Z" fill="#121212" stroke="#121212"/></svg><svg fill="none" viewBox="0 0 330 382" id="tree-right" xmlns="http://www.w3.org/2000/svg"><path d="M228.19 76.595c0 31.809-25.786 57.595-57.595 57.595-31.809 0-61.095-25.786-61.095-57.595C109.5 44.786 138.786 0 170.595 0c31.809 0 57.595 44.786 57.595 76.595ZM137.19 211.367c0 31.809-25.786 57.595-57.595 57.595C47.786 268.962.5 243.176.5 211.367c0-31.809 47.286-57.595 79.095-57.595 31.809 0 57.595 25.786 57.595 57.595Z" fill="#fff"/><path d="M303 128c0 31.809-46.786 70.696-78.595 70.696-31.809 0-57.595-25.786-57.595-57.595 0-31.809 25.786-57.595 57.595-57.595C256.214 83.506 303 96.191 303 128Z" fill="#fff"/><path d="M329.5 219c0 31.809-38.4 49.962-70.209 49.962-31.809 0-57.595-25.786-57.595-57.595 0-31.809 25.786-57.595 57.595-57.595 31.809 0 70.209 33.419 70.209 65.228ZM180.962 141.101c0 31.809-25.786 57.595-57.595 57.595-31.809 0-70.867-38.887-70.867-70.696 0-31.809 39.058-44.494 70.867-44.494 31.809 0 57.595 25.786 57.595 57.595Z" fill="#fff"/><path d="M239.133 229.797c0 31.809-36.729 39.165-68.538 39.165-31.809 0-57.595-7.356-57.595-39.165 0-31.808 25.786-76.025 57.595-76.025 31.809 0 68.538 44.217 68.538 76.025Z" fill="#fff"/><path d="M173.732 203.137c0-11.873-2.287-14.512-2.859-18.47-.572-3.957.427-21.223-1.144-34.741-3.243-27.908-5.147 61.567-4.003 71.681-29.165-3.518-36.599-15.391-36.599-15.391s7.434 22.428 36.599 21.548c0 7.476-.572 155.236-.572 155.236h8.578V209.294c29.737-6.157 36.027-24.627 36.027-24.627s-13.724 18.47-36.027 18.47Z" fill="#121212" stroke="#121212" stroke-width="1.152"/></svg><svg fill="none" viewBox="0 0 123 133" id="tree-sm-left" xmlns="http://www.w3.org/2000/svg"><path d="M85.535 23.892c0 13.196-10.697 23.893-23.893 23.893-13.195 0-23.892-10.697-23.892-23.893C37.75 10.697 48.447 0 61.642 0c13.196 0 23.893 10.697 23.893 23.892ZM47.785 79.8c0 13.196-10.697 23.893-23.893 23.893C10.697 103.693 0 92.996 0 79.801c0-13.196 10.697-23.893 23.892-23.893 13.196 0 23.893 10.697 23.893 23.893Z" fill="#F5F4EC"/><path d="M105.127 52.563c0 13.196-10.697 23.893-23.893 23.893-13.195 0-23.892-10.697-23.892-23.893 0-13.195 10.697-23.892 23.892-23.892 13.196 0 23.893 10.697 23.893 23.892Z" fill="#F5F4EC"/><path d="M122.329 79.8c0 13.196-10.697 23.893-23.892 23.893-13.196 0-23.893-10.697-23.893-23.892 0-13.196 10.697-23.893 23.893-23.893 13.195 0 23.892 10.697 23.892 23.893ZM65.943 50.652c0 13.195-10.697 23.892-23.892 23.892-13.196 0-23.893-10.697-23.893-23.892 0-13.196 10.697-23.893 23.893-23.893 13.195 0 23.892 10.697 23.892 23.893Z" fill="#F5F4EC"/><path d="M90.074 87.446c0 13.196-15.236 16.247-28.432 16.247-13.195 0-23.892-3.051-23.892-16.247 0-13.195 10.697-31.538 23.892-31.538 13.196 0 28.432 18.343 28.432 31.538Z" fill="#F5F4EC"/><path d="M62.944 76.387c0-4.926-.95-6.02-1.186-7.662-.238-1.642.177-8.805-.475-14.412-1.345-11.577-2.135 25.54-1.66 29.736-12.1-1.46-15.183-6.385-15.183-6.385s3.084 9.303 15.183 8.939c0 3.101-.238 64.397-.238 64.397h3.559V78.941c12.336-2.554 14.945-10.216 14.945-10.216s-5.693 7.662-14.945 7.662Z" fill="#121212" stroke="#121212" stroke-width=".478"/></svg><svg fill="none" viewBox="0 0 123 133" id="tree-sm-right" xmlns="http://www.w3.org/2000/svg"><path d="M85.864 23.892c0 13.196-10.697 23.893-23.893 23.893-13.195 0-23.892-10.697-23.892-23.893C38.08 10.697 48.776 0 61.971 0c13.196 0 23.893 10.697 23.893 23.892ZM48.114 79.8c0 13.196-10.697 23.893-23.892 23.893-13.196 0-23.893-10.697-23.893-23.892 0-13.196 10.697-23.893 23.892-23.893 13.196 0 23.893 10.697 23.893 23.893Z" fill="#F5F4EC"/><path d="M105.456 52.563c0 13.196-10.697 23.893-23.893 23.893-13.195 0-23.892-10.697-23.892-23.893 0-13.195 10.697-23.892 23.892-23.892 13.196 0 23.893 10.697 23.893 23.892Z" fill="#F5F4EC"/><path d="M122.658 79.8c0 13.196-10.697 23.893-23.892 23.893-13.196 0-23.893-10.697-23.893-23.892 0-13.196 10.697-23.893 23.893-23.893 13.195 0 23.892 10.697 23.892 23.893ZM66.272 50.652c0 13.195-10.697 23.892-23.892 23.892-13.196 0-23.893-10.697-23.893-23.892 0-13.196 10.697-23.893 23.893-23.893 13.195 0 23.892 10.697 23.892 23.893Z" fill="#F5F4EC"/><path d="M90.403 87.446c0 13.196-15.236 16.247-28.432 16.247-13.195 0-23.892-3.051-23.892-16.247 0-13.195 10.697-31.538 23.892-31.538 13.196 0 28.432 18.343 28.432 31.538Z" fill="#F5F4EC"/><path d="M63.273 76.387c0-4.926-.95-6.02-1.186-7.662-.238-1.642.177-8.805-.475-14.412-1.345-11.577-2.135 25.54-1.66 29.736-12.1-1.46-15.183-6.385-15.183-6.385s3.084 9.303 15.183 8.939c0 3.101-.238 64.397-.238 64.397h3.559V78.941c12.336-2.554 14.945-10.216 14.945-10.216s-5.693 7.662-14.945 7.662Z" fill="#121212" stroke="#121212" stroke-width=".478"/></svg></svg>